<mxfile host="65bd71144e">
    <diagram id="z5QbKBS9YjllUTg7D-9P" name="Page-1">
        <mxGraphModel dx="867" dy="739" grid="1" gridSize="10" guides="1" tooltips="1" connect="1" arrows="1" fold="1" page="1" pageScale="1" pageWidth="827" pageHeight="1169" math="1" shadow="0">
            <root>
                <mxCell id="0"/>
                <mxCell id="1" parent="0"/>
                <mxCell id="lRrl1hdKO7GmZFAi6IMo-29" value="" style="rounded=0;whiteSpace=wrap;html=1;" parent="1" vertex="1">
                    <mxGeometry x="40" width="720" height="430" as="geometry"/>
                </mxCell>
                <mxCell id="lRrl1hdKO7GmZFAi6IMo-18" style="edgeStyle=orthogonalEdgeStyle;rounded=0;orthogonalLoop=1;jettySize=auto;html=1;exitX=0.5;exitY=1;exitDx=0;exitDy=0;startArrow=classic;startFill=1;" parent="1" source="lRrl1hdKO7GmZFAi6IMo-1" target="lRrl1hdKO7GmZFAi6IMo-3" edge="1">
                    <mxGeometry relative="1" as="geometry"/>
                </mxCell>
                <mxCell id="lRrl1hdKO7GmZFAi6IMo-23" value="共识" style="edgeLabel;html=1;align=center;verticalAlign=middle;resizable=0;points=[];" parent="lRrl1hdKO7GmZFAi6IMo-18" vertex="1" connectable="0">
                    <mxGeometry x="0.15" y="-1" relative="1" as="geometry">
                        <mxPoint as="offset"/>
                    </mxGeometry>
                </mxCell>
                <mxCell id="lRrl1hdKO7GmZFAi6IMo-1" value="共识节点" style="rounded=0;whiteSpace=wrap;html=1;" parent="1" vertex="1">
                    <mxGeometry x="160" y="100" width="120" height="60" as="geometry"/>
                </mxCell>
                <mxCell id="lRrl1hdKO7GmZFAi6IMo-21" style="edgeStyle=orthogonalEdgeStyle;rounded=0;orthogonalLoop=1;jettySize=auto;html=1;exitX=0;exitY=0.5;exitDx=0;exitDy=0;entryX=1;entryY=0.5;entryDx=0;entryDy=0;startArrow=classic;startFill=1;" parent="1" source="lRrl1hdKO7GmZFAi6IMo-2" target="lRrl1hdKO7GmZFAi6IMo-1" edge="1">
                    <mxGeometry relative="1" as="geometry"/>
                </mxCell>
                <mxCell id="lRrl1hdKO7GmZFAi6IMo-22" value="共识" style="edgeLabel;html=1;align=center;verticalAlign=middle;resizable=0;points=[];" parent="lRrl1hdKO7GmZFAi6IMo-21" vertex="1" connectable="0">
                    <mxGeometry y="-1" relative="1" as="geometry">
                        <mxPoint as="offset"/>
                    </mxGeometry>
                </mxCell>
                <mxCell id="lRrl1hdKO7GmZFAi6IMo-2" value="共识节点" style="rounded=0;whiteSpace=wrap;html=1;" parent="1" vertex="1">
                    <mxGeometry x="400" y="100" width="120" height="60" as="geometry"/>
                </mxCell>
                <mxCell id="lRrl1hdKO7GmZFAi6IMo-19" style="edgeStyle=orthogonalEdgeStyle;rounded=0;orthogonalLoop=1;jettySize=auto;html=1;exitX=1;exitY=0.5;exitDx=0;exitDy=0;entryX=0;entryY=0.5;entryDx=0;entryDy=0;startArrow=classic;startFill=1;" parent="1" source="lRrl1hdKO7GmZFAi6IMo-3" target="lRrl1hdKO7GmZFAi6IMo-4" edge="1">
                    <mxGeometry relative="1" as="geometry"/>
                </mxCell>
                <mxCell id="lRrl1hdKO7GmZFAi6IMo-25" value="共识" style="edgeLabel;html=1;align=center;verticalAlign=middle;resizable=0;points=[];" parent="lRrl1hdKO7GmZFAi6IMo-19" vertex="1" connectable="0">
                    <mxGeometry y="4" relative="1" as="geometry">
                        <mxPoint as="offset"/>
                    </mxGeometry>
                </mxCell>
                <mxCell id="lRrl1hdKO7GmZFAi6IMo-3" value="共识节点" style="rounded=0;whiteSpace=wrap;html=1;" parent="1" vertex="1">
                    <mxGeometry x="160" y="240" width="120" height="60" as="geometry"/>
                </mxCell>
                <mxCell id="lRrl1hdKO7GmZFAi6IMo-20" style="edgeStyle=orthogonalEdgeStyle;rounded=0;orthogonalLoop=1;jettySize=auto;html=1;exitX=0.5;exitY=0;exitDx=0;exitDy=0;entryX=0.5;entryY=1;entryDx=0;entryDy=0;startArrow=classic;startFill=1;" parent="1" source="lRrl1hdKO7GmZFAi6IMo-4" target="lRrl1hdKO7GmZFAi6IMo-2" edge="1">
                    <mxGeometry relative="1" as="geometry"/>
                </mxCell>
                <mxCell id="lRrl1hdKO7GmZFAi6IMo-24" value="共识" style="edgeLabel;html=1;align=center;verticalAlign=middle;resizable=0;points=[];" parent="lRrl1hdKO7GmZFAi6IMo-20" vertex="1" connectable="0">
                    <mxGeometry x="-0.1" y="-1" relative="1" as="geometry">
                        <mxPoint as="offset"/>
                    </mxGeometry>
                </mxCell>
                <mxCell id="lRrl1hdKO7GmZFAi6IMo-4" value="共识节点" style="rounded=0;whiteSpace=wrap;html=1;" parent="1" vertex="1">
                    <mxGeometry x="400" y="241" width="120" height="60" as="geometry"/>
                </mxCell>
                <mxCell id="lRrl1hdKO7GmZFAi6IMo-5" value="存储合约" style="shape=document;whiteSpace=wrap;html=1;boundedLbl=1;" parent="1" vertex="1">
                    <mxGeometry x="230" y="280" width="90" height="60" as="geometry"/>
                </mxCell>
                <mxCell id="lRrl1hdKO7GmZFAi6IMo-6" value="存储合约" style="shape=document;whiteSpace=wrap;html=1;boundedLbl=1;" parent="1" vertex="1">
                    <mxGeometry x="360" y="280" width="90" height="60" as="geometry"/>
                </mxCell>
                <mxCell id="lRrl1hdKO7GmZFAi6IMo-7" value="存储合约" style="shape=document;whiteSpace=wrap;html=1;boundedLbl=1;" parent="1" vertex="1">
                    <mxGeometry x="360" y="140" width="90" height="60" as="geometry"/>
                </mxCell>
                <mxCell id="lRrl1hdKO7GmZFAi6IMo-8" value="存储合约" style="shape=document;whiteSpace=wrap;html=1;boundedLbl=1;" parent="1" vertex="1">
                    <mxGeometry x="230" y="140" width="90" height="60" as="geometry"/>
                </mxCell>
                <mxCell id="lRrl1hdKO7GmZFAi6IMo-13" style="edgeStyle=orthogonalEdgeStyle;rounded=0;orthogonalLoop=1;jettySize=auto;html=1;exitX=0.5;exitY=1;exitDx=0;exitDy=0;entryX=0.5;entryY=1;entryDx=0;entryDy=0;startArrow=classic;startFill=1;" parent="1" source="lRrl1hdKO7GmZFAi6IMo-9" target="lRrl1hdKO7GmZFAi6IMo-10" edge="1">
                    <mxGeometry relative="1" as="geometry"/>
                </mxCell>
                <mxCell id="lRrl1hdKO7GmZFAi6IMo-17" value="P2P数据同步" style="edgeLabel;html=1;align=center;verticalAlign=middle;resizable=0;points=[];" parent="lRrl1hdKO7GmZFAi6IMo-13" vertex="1" connectable="0">
                    <mxGeometry x="-0.025" y="2" relative="1" as="geometry">
                        <mxPoint as="offset"/>
                    </mxGeometry>
                </mxCell>
                <mxCell id="lRrl1hdKO7GmZFAi6IMo-14" style="edgeStyle=orthogonalEdgeStyle;rounded=0;orthogonalLoop=1;jettySize=auto;html=1;exitX=0;exitY=0.5;exitDx=0;exitDy=0;entryX=0;entryY=0.5;entryDx=0;entryDy=0;startArrow=classic;startFill=1;" parent="1" source="lRrl1hdKO7GmZFAi6IMo-9" target="lRrl1hdKO7GmZFAi6IMo-12" edge="1">
                    <mxGeometry relative="1" as="geometry"/>
                </mxCell>
                <mxCell id="lRrl1hdKO7GmZFAi6IMo-28" value="P2P数据同步" style="edgeLabel;html=1;align=center;verticalAlign=middle;resizable=0;points=[];" parent="lRrl1hdKO7GmZFAi6IMo-14" vertex="1" connectable="0">
                    <mxGeometry x="0.0308" relative="1" as="geometry">
                        <mxPoint as="offset"/>
                    </mxGeometry>
                </mxCell>
                <mxCell id="lRrl1hdKO7GmZFAi6IMo-9" value="存储节点" style="ellipse;whiteSpace=wrap;html=1;aspect=fixed;" parent="1" vertex="1">
                    <mxGeometry x="120" y="280" width="80" height="80" as="geometry"/>
                </mxCell>
                <mxCell id="lRrl1hdKO7GmZFAi6IMo-39" style="edgeStyle=orthogonalEdgeStyle;rounded=0;orthogonalLoop=1;jettySize=auto;html=1;exitX=1;exitY=1;exitDx=0;exitDy=0;startArrow=classic;startFill=1;" parent="1" source="lRrl1hdKO7GmZFAi6IMo-10" target="lRrl1hdKO7GmZFAi6IMo-38" edge="1">
                    <mxGeometry relative="1" as="geometry"/>
                </mxCell>
                <mxCell id="lRrl1hdKO7GmZFAi6IMo-10" value="存储节点" style="ellipse;whiteSpace=wrap;html=1;aspect=fixed;" parent="1" vertex="1">
                    <mxGeometry x="480" y="280" width="80" height="80" as="geometry"/>
                </mxCell>
                <mxCell id="lRrl1hdKO7GmZFAi6IMo-16" style="edgeStyle=orthogonalEdgeStyle;rounded=0;orthogonalLoop=1;jettySize=auto;html=1;exitX=1;exitY=0.5;exitDx=0;exitDy=0;entryX=1;entryY=0.5;entryDx=0;entryDy=0;startArrow=classic;startFill=1;" parent="1" source="lRrl1hdKO7GmZFAi6IMo-11" target="lRrl1hdKO7GmZFAi6IMo-10" edge="1">
                    <mxGeometry relative="1" as="geometry"/>
                </mxCell>
                <mxCell id="lRrl1hdKO7GmZFAi6IMo-26" value="P2P数据同步" style="edgeLabel;html=1;align=center;verticalAlign=middle;resizable=0;points=[];" parent="lRrl1hdKO7GmZFAi6IMo-16" vertex="1" connectable="0">
                    <mxGeometry x="-0.0308" y="1" relative="1" as="geometry">
                        <mxPoint as="offset"/>
                    </mxGeometry>
                </mxCell>
                <mxCell id="lRrl1hdKO7GmZFAi6IMo-44" style="edgeStyle=orthogonalEdgeStyle;rounded=0;orthogonalLoop=1;jettySize=auto;html=1;exitX=1;exitY=0;exitDx=0;exitDy=0;entryX=0.5;entryY=0;entryDx=0;entryDy=0;startArrow=classic;startFill=1;" parent="1" source="lRrl1hdKO7GmZFAi6IMo-11" target="lRrl1hdKO7GmZFAi6IMo-42" edge="1">
                    <mxGeometry relative="1" as="geometry"/>
                </mxCell>
                <mxCell id="lRrl1hdKO7GmZFAi6IMo-11" value="存储节点" style="ellipse;whiteSpace=wrap;html=1;aspect=fixed;" parent="1" vertex="1">
                    <mxGeometry x="480" y="60" width="80" height="80" as="geometry"/>
                </mxCell>
                <mxCell id="lRrl1hdKO7GmZFAi6IMo-15" style="edgeStyle=orthogonalEdgeStyle;rounded=0;orthogonalLoop=1;jettySize=auto;html=1;exitX=0.5;exitY=0;exitDx=0;exitDy=0;entryX=0.5;entryY=0;entryDx=0;entryDy=0;startArrow=classic;startFill=1;" parent="1" source="lRrl1hdKO7GmZFAi6IMo-12" target="lRrl1hdKO7GmZFAi6IMo-11" edge="1">
                    <mxGeometry relative="1" as="geometry">
                        <Array as="points">
                            <mxPoint x="160" y="40"/>
                            <mxPoint x="520" y="40"/>
                        </Array>
                    </mxGeometry>
                </mxCell>
                <mxCell id="lRrl1hdKO7GmZFAi6IMo-27" value="P2P数据同步" style="edgeLabel;html=1;align=center;verticalAlign=middle;resizable=0;points=[];" parent="lRrl1hdKO7GmZFAi6IMo-15" vertex="1" connectable="0">
                    <mxGeometry x="-0.02" y="2" relative="1" as="geometry">
                        <mxPoint as="offset"/>
                    </mxGeometry>
                </mxCell>
                <mxCell id="lRrl1hdKO7GmZFAi6IMo-12" value="存储节点" style="ellipse;whiteSpace=wrap;html=1;aspect=fixed;" parent="1" vertex="1">
                    <mxGeometry x="120" y="60" width="80" height="80" as="geometry"/>
                </mxCell>
                <mxCell id="lRrl1hdKO7GmZFAi6IMo-32" value="3" style="whiteSpace=wrap;html=1;shape=partialRectangle;top=0;left=0;bottom=1;right=0;points=[[0,1],[1,1]];fillColor=none;align=center;verticalAlign=bottom;routingCenterY=0.5;snapToPoint=1;recursiveResize=0;autosize=1;treeFolding=1;treeMoving=1;newEdgeStyle={&quot;edgeStyle&quot;:&quot;entityRelationEdgeStyle&quot;,&quot;startArrow&quot;:&quot;none&quot;,&quot;endArrow&quot;:&quot;none&quot;,&quot;segment&quot;:10,&quot;curved&quot;:1};" parent="1" vertex="1">
                    <mxGeometry x="580" y="30" width="40" height="20" as="geometry"/>
                </mxCell>
                <mxCell id="lRrl1hdKO7GmZFAi6IMo-33" value="" style="edgeStyle=entityRelationEdgeStyle;startArrow=none;endArrow=none;segment=10;curved=1;" parent="1" target="lRrl1hdKO7GmZFAi6IMo-32" edge="1">
                    <mxGeometry relative="1" as="geometry">
                        <mxPoint x="520" y="70" as="sourcePoint"/>
                    </mxGeometry>
                </mxCell>
                <mxCell id="lRrl1hdKO7GmZFAi6IMo-34" value="4" style="whiteSpace=wrap;html=1;shape=partialRectangle;top=0;left=0;bottom=1;right=0;points=[[0,1],[1,1]];fillColor=none;align=center;verticalAlign=bottom;routingCenterY=0.5;snapToPoint=1;recursiveResize=0;autosize=1;treeFolding=1;treeMoving=1;newEdgeStyle={&quot;edgeStyle&quot;:&quot;entityRelationEdgeStyle&quot;,&quot;startArrow&quot;:&quot;none&quot;,&quot;endArrow&quot;:&quot;none&quot;,&quot;segment&quot;:10,&quot;curved&quot;:1};" parent="1" vertex="1">
                    <mxGeometry x="320" y="70" width="40" height="20" as="geometry"/>
                </mxCell>
                <mxCell id="lRrl1hdKO7GmZFAi6IMo-35" value="" style="edgeStyle=entityRelationEdgeStyle;startArrow=none;endArrow=none;segment=10;curved=1;" parent="1" target="lRrl1hdKO7GmZFAi6IMo-34" edge="1">
                    <mxGeometry relative="1" as="geometry">
                        <mxPoint x="260" y="110" as="sourcePoint"/>
                    </mxGeometry>
                </mxCell>
                <mxCell id="lRrl1hdKO7GmZFAi6IMo-36" value="5" style="whiteSpace=wrap;html=1;shape=partialRectangle;top=0;left=0;bottom=1;right=0;points=[[0,1],[1,1]];fillColor=none;align=center;verticalAlign=bottom;routingCenterY=0.5;snapToPoint=1;recursiveResize=0;autosize=1;treeFolding=1;treeMoving=1;newEdgeStyle={&quot;edgeStyle&quot;:&quot;entityRelationEdgeStyle&quot;,&quot;startArrow&quot;:&quot;none&quot;,&quot;endArrow&quot;:&quot;none&quot;,&quot;segment&quot;:10,&quot;curved&quot;:1};" parent="1" vertex="1">
                    <mxGeometry x="330" y="340" width="40" height="20" as="geometry"/>
                </mxCell>
                <mxCell id="lRrl1hdKO7GmZFAi6IMo-37" value="" style="edgeStyle=entityRelationEdgeStyle;startArrow=none;endArrow=none;segment=10;curved=1;" parent="1" target="lRrl1hdKO7GmZFAi6IMo-36" edge="1">
                    <mxGeometry relative="1" as="geometry">
                        <mxPoint x="270" y="330" as="sourcePoint"/>
                    </mxGeometry>
                </mxCell>
                <mxCell id="lRrl1hdKO7GmZFAi6IMo-47" style="edgeStyle=orthogonalEdgeStyle;rounded=0;orthogonalLoop=1;jettySize=auto;html=1;exitX=0.5;exitY=0;exitDx=0;exitDy=0;exitPerimeter=0;entryX=0.5;entryY=1;entryDx=0;entryDy=0;startArrow=none;startFill=0;" parent="1" source="lRrl1hdKO7GmZFAi6IMo-38" target="lRrl1hdKO7GmZFAi6IMo-42" edge="1">
                    <mxGeometry relative="1" as="geometry"/>
                </mxCell>
                <mxCell id="lRrl1hdKO7GmZFAi6IMo-38" value="用户端" style="shape=umlActor;verticalLabelPosition=bottom;verticalAlign=top;html=1;outlineConnect=0;" parent="1" vertex="1">
                    <mxGeometry x="630" y="340" width="30" height="60" as="geometry"/>
                </mxCell>
                <mxCell id="lRrl1hdKO7GmZFAi6IMo-40" value="1" style="whiteSpace=wrap;html=1;shape=partialRectangle;top=0;left=0;bottom=1;right=0;points=[[0,1],[1,1]];fillColor=none;align=center;verticalAlign=bottom;routingCenterY=0.5;snapToPoint=1;recursiveResize=0;autosize=1;treeFolding=1;treeMoving=1;newEdgeStyle={&quot;edgeStyle&quot;:&quot;entityRelationEdgeStyle&quot;,&quot;startArrow&quot;:&quot;none&quot;,&quot;endArrow&quot;:&quot;none&quot;,&quot;segment&quot;:10,&quot;curved&quot;:1};" parent="1" vertex="1">
                    <mxGeometry x="700" y="310" width="40" height="20" as="geometry"/>
                </mxCell>
                <mxCell id="lRrl1hdKO7GmZFAi6IMo-41" value="" style="edgeStyle=entityRelationEdgeStyle;startArrow=none;endArrow=none;segment=10;curved=1;" parent="1" target="lRrl1hdKO7GmZFAi6IMo-40" edge="1">
                    <mxGeometry relative="1" as="geometry">
                        <mxPoint x="640" y="350" as="sourcePoint"/>
                    </mxGeometry>
                </mxCell>
                <mxCell id="lRrl1hdKO7GmZFAi6IMo-42" value="控制台" style="shape=hexagon;perimeter=hexagonPerimeter2;whiteSpace=wrap;html=1;fixedSize=1;" parent="1" vertex="1">
                    <mxGeometry x="630" y="161" width="90" height="80" as="geometry"/>
                </mxCell>
                <mxCell id="lRrl1hdKO7GmZFAi6IMo-45" value="2" style="whiteSpace=wrap;html=1;shape=partialRectangle;top=0;left=0;bottom=1;right=0;points=[[0,1],[1,1]];fillColor=none;align=center;verticalAlign=bottom;routingCenterY=0.5;snapToPoint=1;recursiveResize=0;autosize=1;treeFolding=1;treeMoving=1;newEdgeStyle={&quot;edgeStyle&quot;:&quot;entityRelationEdgeStyle&quot;,&quot;startArrow&quot;:&quot;none&quot;,&quot;endArrow&quot;:&quot;none&quot;,&quot;segment&quot;:10,&quot;curved&quot;:1};" parent="1" vertex="1">
                    <mxGeometry x="720" y="130" width="40" height="20" as="geometry"/>
                </mxCell>
                <mxCell id="lRrl1hdKO7GmZFAi6IMo-46" value="" style="edgeStyle=entityRelationEdgeStyle;startArrow=none;endArrow=none;segment=10;curved=1;" parent="1" target="lRrl1hdKO7GmZFAi6IMo-45" edge="1">
                    <mxGeometry relative="1" as="geometry">
                        <mxPoint x="660" y="170" as="sourcePoint"/>
                    </mxGeometry>
                </mxCell>
            </root>
        </mxGraphModel>
    </diagram>
</mxfile>